[Header]
FileType HTR
DataType HTRS
FileVersion 1
NumSegments 64
NumFrames 3
DataFrameRate 24
EulerRotationOrder ZYX
CalibrationUnits mm
RotationUnits Degrees
GlobalAxisofGravity Y
BoneLengthAxis Y
ScaleFactor 1.0
[SegmentNames&Hierarchy]
Hips	GLOBAL
Spine	Hips
Spine1	Spine
Spine2	Spine1
Neck	Spine2
Head	Neck
LeftEye	Head
RightEye	Head
LeftShoulder	Spine2
LeftArm	LeftShoulder
LeftForeArm	LeftArm
LeftHand	LeftForeArm
LeftHandThumb1	LeftHand
LeftHandThumb2	LeftHandThumb1
LeftHandThumb3	LeftHandThumb2
LeftHandThumb4	LeftHandThumb3
LeftHandIndex1	LeftHand
LeftHandIndex2	LeftHandIndex1
LeftHandIndex3	LeftHandIndex2
LeftHandIndex4	LeftHandIndex3
LeftHandMiddle1	LeftHand
LeftHandMiddle2	LeftHandMiddle1
LeftHandMiddle3	LeftHandMiddle2
LeftHandMiddle4	LeftHandMiddle3
LeftHandRing1	LeftHand
LeftHandRing2	LeftHandRing1
LeftHandRing3	LeftHandRing2
LeftHandRing4	LeftHandRing3
LeftHandPinky1	LeftHand
LeftHandPinky2	LeftHandPinky1
LeftHandPinky3	LeftHandPinky2
LeftHandPinky4	LeftHandPinky3
RightShoulder	Spine2
RightArm	RightShoulder
RightForeArm	RightArm
RightHand	RightForeArm
RightHandPinky1	RightHand
RightHandPinky2	RightHandPinky1
RightHandPinky3	RightHandPinky2
RightHandPinky4	RightHandPinky3
RightHandRing1	RightHand
RightHandRing2	RightHandRing1
RightHandRing3	RightHandRing2
RightHandRing4	RightHandRing3
RightHandMiddle1	RightHand
RightHandMiddle2	RightHandMiddle1
RightHandMiddle3	RightHandMiddle2
RightHandMiddle4	RightHandMiddle3
RightHandIndex1	RightHand
RightHandIndex2	RightHandIndex1
RightHandIndex3	RightHandIndex2
RightHandIndex4	RightHandIndex3
RightHandThumb1	RightHand
RightHandThumb2	RightHandThumb1
RightHandThumb3	RightHandThumb2
RightHandThumb4	RightHandThumb3
LeftUpLeg	Hips
LeftLeg	LeftUpLeg
LeftFoot	LeftLeg
LeftToeBase	LeftFoot
RightUpLeg	Hips
RightLeg	RightUpLeg
RightFoot	RightLeg
RightToeBase	RightFoot
[BasePosition]
Hips	0	0	0	0	0	0	1
Spine	0	0	0	0	0	0	1
Spine1	0	0	0	0	0	0	1
Spine2	0	0	0	0	0	0	1
Neck	0	0	0	0	0	0	1
Head	0	0	0	0	0	0	1
LeftEye	0	0	0	0	0	0	1
RightEye	0	0	0	0	0	0	1
LeftShoulder	0	0	0	0	0	0	1
LeftArm	0	0	0	0	0	0	1
LeftForeArm	0	0	0	0	0	0	1
LeftHand	0	0	0	0	0	0	1
LeftHandThumb1	0	0	0	0	0	0	1
LeftHandThumb2	0	0	0	0	0	0	1
LeftHandThumb3	0	0	0	0	0	0	1
LeftHandThumb4	0	0	0	0	0	0	1
LeftHandIndex1	0	0	0	0	0	0	1
LeftHandIndex2	0	0	0	0	0	0	1
LeftHandIndex3	0	0	0	0	0	0	1
LeftHandIndex4	0	0	0	0	0	0	1
LeftHandMiddle1	0	0	0	0	0	0	1
LeftHandMiddle2	0	0	0	0	0	0	1
LeftHandMiddle3	0	0	0	0	0	0	1
LeftHandMiddle4	0	0	0	0	0	0	1
LeftHandRing1	0	0	0	0	0	0	1
LeftHandRing2	0	0	0	0	0	0	1
LeftHandRing3	0	0	0	0	0	0	1
LeftHandRing4	0	0	0	0	0	0	1
LeftHandPinky1	0	0	0	0	0	0	1
LeftHandPinky2	0	0	0	0	0	0	1
LeftHandPinky3	0	0	0	0	0	0	1
LeftHandPinky4	0	0	0	0	0	0	1
RightShoulder	0	0	0	0	0	0	1
RightArm	0	0	0	0	0	0	1
RightForeArm	0	0	0	0	0	0	1
RightHand	0	0	0	0	0	0	1
RightHandPinky1	0	0	0	0	0	0	1
RightHandPinky2	0	0	0	0	0	0	1
RightHandPinky3	0	0	0	0	0	0	1
RightHandPinky4	0	0	0	0	0	0	1
RightHandRing1	0	0	0	0	0	0	1
RightHandRing2	0	0	0	0	0	0	1
RightHandRing3	0	0	0	0	0	0	1
RightHandRing4	0	0	0	0	0	0	1
RightHandMiddle1	0	0	0	0	0	0	1
RightHandMiddle2	0	0	0	0	0	0	1
RightHandMiddle3	0	0	0	0	0	0	1
RightHandMiddle4	0	0	0	0	0	0	1
RightHandIndex1	0	0	0	0	0	0	1
RightHandIndex2	0	0	0	0	0	0	1
RightHandIndex3	0	0	0	0	0	0	1
RightHandIndex4	0	0	0	0	0	0	1
RightHandThumb1	0	0	0	0	0	0	1
RightHandThumb2	0	0	0	0	0	0	1
RightHandThumb3	0	0	0	0	0	0	1
RightHandThumb4	0	0	0	0	0	0	1
LeftUpLeg	0	0	0	0	0	0	1
LeftLeg	0	0	0	0	0	0	1
LeftFoot	0	0	0	0	0	0	1
LeftToeBase	0	0	0	0	0	0	1
RightUpLeg	0	0	0	0	0	0	1
RightLeg	0	0	0	0	0	0	1
RightFoot	0	0	0	0	0	0	1
RightToeBase	0	0	0	0	0	0	1
[Hips]
10	28.94973564	928.3204346	1414.021973	11.57956219	8.27270031	3.712893248	1.0
11	28.04452133	967.553833	1572.683228	11.48490524	5.88866806	-0.6370619535	1.0
12	24.04999161	1004.520874	1732.02417	12.22593021	2.920464039	-4.855782509	1.0
[Spine]
10	0	101.8159943	1.315000057	0.2008773834	3.395704746	1.610139608	1.0
11	0	101.8159943	1.315000057	0.3366395831	2.562378407	4.094346523	1.0
12	0	101.8159943	1.315000057	0.896023035	1.662829876	5.974735737	1.0
[Spine1]
10	0	100.8349991	-10.00800037	6.619912148	-0.2036660165	-3.777407885	1.0
11	0	100.8349991	-10.00800037	6.621203899	-2.587904215	-0.7386325598	1.0
12	0	100.8349991	-10.00800037	6.627567291	-4.931200981	1.835800648	1.0
[Spine2]
10	0	91	-13.73399925	3.509535789	-0.5759475827	0.6859587431	1.0
11	0	91	-13.73399925	3.47804141	-2.929161787	3.690045118	1.0
12	0	91	-13.73399925	3.470883369	-5.296866417	6.215408802	1.0
[Neck]
10	0	166.7169952	-25.16200066	1.090664029	-1.071268439	-0.9275386333	1.0
11	0	166.7169952	-25.16200066	3.155310869	-0.05853312835	-2.589385748	1.0
12	0	166.7169952	-25.16200066	3.662770271	0.6340733171	-1.269980669	1.0
[Head]
10	0	96.17900085	16.84999847	-26.58709526	-7.012238979	0.6863802671	1.0
11	0	96.17900085	16.84999847	-28.95878601	-1.520410061	-3.503184795	1.0
12	0	96.17900085	16.84999847	-31.68086052	5.085024357	-9.632259369	1.0
[LeftEye]
10	30.6760006	64.09500122	92.83599854	0	0	0	1.0
11	30.6760006	64.09500122	92.83599854	0	0	0	1.0
12	30.6760006	64.09500122	92.83599854	0	0	0	1.0
[RightEye]
10	-30.6760006	64.09500122	92.83499908	0	0	0	1.0
11	-30.6760006	64.09500122	92.83499908	0	0	0	1.0
12	-30.6760006	64.09500122	92.83499908	0	0	0	1.0
[LeftShoulder]
10	45.70400238	109.4599991	-26.28000069	5.392400265	-16.12303925	-28.44502449	1.0
11	45.70400238	109.4599991	-26.28000069	5.352333546	-17.02893639	-27.13807678	1.0
12	45.70400238	109.4599991	-26.28000069	4.220043182	-16.41464615	-23.25862885	1.0
[LeftArm]
10	105.923996	-5.24600029	-22.32099915	0.4821738899	-11.31740665	-41.27556229	1.0
11	105.923996	-5.24600029	-22.32099915	-2.410645485	-16.90287971	-45.19318771	1.0
12	105.923996	-5.24600029	-22.32099915	-4.382330418	-16.25466919	-46.70045471	1.0
[LeftForeArm]
10	278.414978	-0.0009999999311	0	-3.009214561e-05	-76.01229858	-0.0001587158622	1.0
11	278.414978	-0.0009999999311	0	-4.984928819e-05	-76.80492401	-0.0001925369288	1.0
12	278.414978	-0.0009999999311	0	1.682762922e-05	-86.24765015	-0.0001125514318	1.0
[LeftHand]
10	283.2879944	0	0	3.551509857	6.577041626	5.838169575	1.0
11	283.2879944	0	0	2.372653246	4.352354527	7.948571205	1.0
12	283.2879944	0	0	-0.7016373277	-6.309998035	12.59260654	1.0
[LeftHandThumb1]
10	24.6609993	-15.75	26.8239994	12.36469269	-3.406631947	9.635087013	1.0
11	24.6609993	-15.75	26.8239994	12.31589699	-3.513586044	9.573040009	1.0
12	24.6609993	-15.75	26.8239994	12.21891308	-3.719949245	9.451436996	1.0
[LeftHandThumb2]
10	32.29800034	-18.64699936	18.64699936	-2.001185894	16.11875343	4.087491512	1.0
11	32.29800034	-18.64699936	18.64699936	-0.8942370415	16.81284332	3.609073639	1.0
12	32.29800034	-18.64699936	18.64699936	0.5035678148	16.61840248	5.23504734	1.0
[LeftHandThumb3]
10	26.52600098	-15.31499958	15.31499958	5.14337635	-3.910779953	1.857224226	1.0
11	26.52600098	-15.31499958	15.31499958	4.184272289	-3.533356428	5.772395611	1.0
12	26.52600098	-15.31499958	15.31499958	3.762378693	-3.549632549	5.44902277	1.0
[LeftHandThumb4]
10	19.54599953	-11.28499985	11.28499985	0	0	0	1.0
11	19.54599953	-11.28499985	11.28499985	0	0	0	1.0
12	19.54599953	-11.28499985	11.28499985	0	0	0	1.0
[LeftHandIndex1]
10	91.09299469	-5.170999527	22.60099792	-8.428338051	7.900806904	-67.11294556	1.0
11	91.09299469	-5.170999527	22.60099792	-7.147080421	6.339033604	-70.09407043	1.0
12	91.09299469	-5.170999527	22.60099792	-5.488061428	4.007979393	-76.08333588	1.0
[LeftHandIndex2]
10	36.76399994	0	0	-3.440310955	5.341846943	-58.83793259	1.0
11	36.76399994	0	0	-3.656123638	5.429620266	-61.13676453	1.0
12	36.76399994	0	0	-3.745409489	5.463036537	-62.07758713	1.0
[LeftHandIndex3]
10	28.83100128	0	0	-1.757014632	3.90819025	-45.72815704	1.0
11	28.83100128	0	0	-1.925178409	4.065318584	-48.02482224	1.0
12	28.83100128	0	0	-1.996377826	4.128139496	-48.97260284	1.0
[LeftHandIndex4]
10	23.92700005	0	0	0	0	0	1.0
11	23.92700005	0	0	0	0	0	1.0
12	23.92700005	0	0	0	0	0	1.0
[LeftHandMiddle1]
10	95.33399963	0	0	-9.500684738	8.366204262	-75.12365723	1.0
11	95.33399963	0	0	-9.435190201	4.436553955	-74.9985733	1.0
12	95.33399963	0	0	-9.512505531	-0.112920098	-75.79139709	1.0
[LeftHandMiddle2]
10	36.98199844	0	0	-3.708809137	5.33820343	-60.78971863	1.0
11	36.98199844	0	0	-3.715967417	5.340797901	-60.86515427	1.0
12	36.98199844	0	0	-3.851888657	5.387871265	-62.28975677	1.0
[LeftHandMiddle3]
10	29.50900078	0	0	-2.248399258	4.702099323	-51.71922684	1.0
11	29.50900078	0	0	-2.318923473	4.754527092	-52.60569763	1.0
12	29.50900078	0	0	-2.453469515	4.850016117	-54.27022171	1.0
[LeftHandMiddle4]
10	28.3390007	0	0	0	0	0	1.0
11	28.3390007	0	0	0	0	0	1.0
12	28.3390007	0	0	0	0	0	1.0
[LeftHandRing1]
10	91.04499817	-0.4390000105	-18.65100098	-9.29323864	6.182011127	-74.65081024	1.0
11	91.04499817	-0.4390000105	-18.65100098	-9.186947823	5.337670326	-74.16739655	1.0
12	91.04499817	-0.4390000105	-18.65100098	-8.880634308	4.509241581	-72.11235046	1.0
[LeftHandRing2]
10	31.54000092	0	0	-2.595374107	5.327566147	-59.41828537	1.0
11	31.54000092	0	0	-2.705441713	5.396386623	-60.73265839	1.0
12	31.54000092	0	0	-2.832150221	5.471355438	-62.22362518	1.0
[LeftHandRing3]
10	29.37700081	0	0	-2.093081713	5.017691135	-57.29930878	1.0
11	29.37700081	0	0	-2.191943884	5.093834877	-58.55784225	1.0
12	29.37700081	0	0	-2.302552462	5.175034046	-59.94193649	1.0
[LeftHandRing4]
10	26.47500038	0	0	0	0	0	1.0
11	26.47500038	0	0	0	0	0	1.0
12	26.47500038	0	0	0	0	0	1.0
[LeftHandPinky1]
10	80.77799988	-4.887000084	-38.06099701	-11.53745842	6.298882961	-89.15335083	1.0
11	80.77799988	-4.887000084	-38.06099701	-10.64093971	1.978348851	-85.92043304	1.0
12	80.77799988	-4.887000084	-38.06099701	-10.28534794	-1.083500147	-83.14614868	1.0
[LeftHandPinky2]
10	36	0	0	-2.949475288	4.520041943	-57.97791672	1.0
11	36	0	0	-3.068069935	4.583480358	-59.32756805	1.0
12	36	0	0	-3.102916241	4.601449966	-59.72096634	1.0
[LeftHandPinky3]
10	21.14200211	0	0	-2.478027582	5.095507622	-50.64267349	1.0
11	21.14200211	0	0	-2.54984951	5.143797874	-51.50919342	1.0
12	21.14200211	0	0	-2.510476828	5.117539883	-51.03532791	1.0
[LeftHandPinky4]
10	19.75699997	0	0	0	0	0	1.0
11	19.75699997	0	0	0	0	0	1.0
12	19.75699997	0	0	0	0	0	1.0
[RightShoulder]
10	-45.70000076	109.4620056	-26.28000069	-4.427096844	3.522286415	14.08433247	1.0
11	-45.70000076	109.4620056	-26.28000069	-4.067195892	6.289223671	10.69998837	1.0
12	-45.70000076	109.4620056	-26.28000069	-3.747216225	10.6142168	8.678454399	1.0
[RightArm]
10	-105.9280014	-5.248000145	-22.32099915	30.68376923	-3.291534185	37.37422562	1.0
11	-105.9280014	-5.248000145	-22.32099915	30.68615913	-12.85756016	35.06408691	1.0
12	-105.9280014	-5.248000145	-22.32099915	29.85302925	-22.33372879	32.57221603	1.0
[RightForeArm]
10	-278.414978	0	0	2.53520866e-05	84.07617188	5.243417763e-05	1.0
11	-278.414978	0	0	3.034278774e-12	96.11864471	1.525878906e-05	1.0
12	-278.414978	0	0	6.103515625e-05	106.2145386	4.577636719e-05	1.0
[RightHand]
10	-283.2879944	0	0.0009999999311	-6.190719128	1.864786148	-13.28149223	1.0
11	-283.2879944	0	0.0009999999311	-6.642139912	-2.838273764	-6.466228485	1.0
12	-283.2879944	0	0.0009999999311	-3.153346539	0.5786254406	-3.315174341	1.0
[RightHandPinky1]
10	-80.76699829	-4.885000229	-38.06000137	-11.68344688	-10.01492214	74.93927765	1.0
11	-80.76699829	-4.885000229	-38.06000137	-11.1342144	-10.32285023	70.37598419	1.0
12	-80.76699829	-4.885000229	-38.06000137	-10.88498878	-10.61857319	67.49052429	1.0
[RightHandPinky2]
10	-36	0	0.0009999999311	-5.457735062	-5.222229958	84.37924957	1.0
11	-36	0	0.0009999999311	-5.624681473	-5.22708416	86.05622864	1.0
12	-36	0	0.0009999999311	-5.699175358	-5.227671146	86.80435181	1.0
[RightHandPinky3]
10	-21.14200211	0	0	-2.676897764	-2.101514578	51.19535828	1.0
11	-21.14200211	0	0	-2.816687822	-2.192482471	52.86232376	1.0
12	-21.14200211	0	0	-2.879867077	-2.231738091	53.60606384	1.0
[RightHandPinky4]
10	-19.75699997	0	0	0	0	0	1.0
11	-19.75699997	0	0	0	0	0	1.0
12	-19.75699997	0	0	0	0	0	1.0
[RightHandRing1]
10	-91.03599548	-0.4390000105	-18.65100098	-9.349570274	-7.341157913	74.6421051	1.0
11	-91.03599548	-0.4390000105	-18.65100098	-9.071988106	-7.030768394	72.62752533	1.0
12	-91.03599548	-0.4390000105	-18.65100098	-8.987735748	-6.761088371	72.08794403	1.0
[RightHandRing2]
10	-31.54000092	0	0	-3.438230515	-5.772225857	69.08784485	1.0
11	-31.54000092	0	0	-3.44769907	-5.776220322	69.19215393	1.0
12	-31.54000092	0	0	-3.512550116	-5.803154945	69.90337372	1.0
[RightHandRing3]
10	-29.37700081	0	0	-1.855771065	-2.906569719	53.09921646	1.0
11	-29.37700081	0	0	-1.862850428	-2.913042307	53.19600296	1.0
12	-29.37700081	0	0	-1.914390087	-2.959538698	53.8951683	1.0
[RightHandRing4]
10	-26.47500038	0	0	0	0	0	1.0
11	-26.47500038	0	0	0	0	0	1.0
12	-26.47500038	0	0	0	0	0	1.0
[RightHandMiddle1]
10	-95.32500458	0	0	-7.210365295	-6.688876629	58.10917282	1.0
11	-95.32500458	0	0	-6.715109348	-6.602804184	54.56733322	1.0
12	-95.32500458	0	0	-6.619011402	-6.527896881	53.88484955	1.0
[RightHandMiddle2]
10	-36.98199844	0	0	-3.905427933	-5.40481472	62.8522377	1.0
11	-36.98199844	0	0	-3.929781675	-5.41261673	63.10560608	1.0
12	-36.98199844	0	0	-3.977361917	-5.427466393	63.5993576	1.0
[RightHandMiddle3]
10	-29.50900078	0	0	-2.534907103	-4.742511749	55.14841843	1.0
11	-29.50900078	0	0	-2.5557127	-4.756272316	55.40048218	1.0
12	-29.50900078	0	0	-2.596585512	-4.782977104	55.89284897	1.0
[RightHandMiddle4]
10	-28.3390007	0	0.0009999999311	0	0	0	1.0
11	-28.3390007	0	0.0009999999311	0	0	0	1.0
12	-28.3390007	0	0.0009999999311	0	0	0	1.0
[RightHandIndex1]
10	-91.08300018	-5.167999744	22.60099792	-4.39051199	-7.056827068	55.48635864	1.0
11	-91.08300018	-5.167999744	22.60099792	-3.841200829	-6.971327782	52.42706299	1.0
12	-91.08300018	-5.167999744	22.60099792	-3.835490227	-6.932342052	52.62877655	1.0
[RightHandIndex2]
10	-36.76399994	0	0	-3.338895559	-5.296554089	57.74817657	1.0
11	-36.76399994	0	0	-3.35406518	-5.303395271	57.9123497	1.0
12	-36.76399994	0	0	-3.378406286	-5.314284801	58.17552567	1.0
[RightHandIndex3]
10	-28.83100128	0	0	-1.998102784	-3.076701641	48.30433655	1.0
11	-28.83100128	0	0	-2.010374308	-3.087595224	48.46780014	1.0
12	-28.83100128	0	0	-2.030082703	-3.104955673	48.7298317	1.0
[RightHandIndex4]
10	-23.92700005	0	0	0	0	0	1.0
11	-23.92700005	0	0	0	0	0	1.0
12	-23.92700005	0	0	0	0	0	1.0
[RightHandThumb1]
10	-24.64799881	-15.72700024	26.82600021	3.717712402	-5.944931984	-6.914961338	1.0
11	-24.64799881	-15.72700024	26.82600021	4.76505518	-8.501861572	-6.859368801	1.0
12	-24.64799881	-15.72700024	26.82600021	7.084541798	-8.065158844	-6.573910713	1.0
[RightHandThumb2]
10	-32.29800034	-18.64699936	18.64699936	4.450273991	-22.70461082	-4.580922127	1.0
11	-32.29800034	-18.64699936	18.64699936	4.450273991	-22.70461082	-4.580922127	1.0
12	-32.29800034	-18.64699936	18.64699936	4.450273991	-22.70461082	-4.580922127	1.0
[RightHandThumb3]
10	-26.52600098	-15.31399918	15.31399918	-12.58338261	9.9640131	3.83227396	1.0
11	-26.52600098	-15.31399918	15.31399918	-12.58338261	9.9640131	3.83227396	1.0
12	-26.52600098	-15.31399918	15.31399918	-12.58338261	9.9640131	3.83227396	1.0
[RightHandThumb4]
10	-19.54599953	-11.28499985	11.28499985	0	0	0	1.0
11	-19.54599953	-11.28499985	11.28499985	0	0	0	1.0
12	-19.54599953	-11.28499985	11.28499985	0	0	0	1.0
[LeftUpLeg]
10	82.07800293	-67.51699829	-15.99599934	-23.59660912	-3.538406849	-9.388484001	1.0
11	82.07800293	-67.51699829	-15.99599934	-12.1210022	1.188102245	-3.85190177	1.0
12	82.07800293	-67.51699829	-15.99599934	-9.936771393	3.735941648	1.237181306	1.0
[LeftLeg]
10	0	-443.7049866	2.845999956	46.88366699	-3.263262987	-1.166716218	1.0
11	0	-443.7049866	2.845999956	37.27444839	-1.494992018	0.6793136001	1.0
12	0	-443.7049866	2.845999956	40.20533752	1.59263289	4.335377693	1.0
[LeftFoot]
10	0	-444.2789917	-29.8219986	-31.96479225	1.876397371	6.680708408	1.0
11	0	-444.2789917	-29.8219986	-12.73336315	-3.226817846	6.278468609	1.0
12	0	-444.2789917	-29.8219986	12.49076843	-6.422392845	-8.899138451	1.0
[LeftToeBase]
10	0	-87.28699493	107.1060028	-9.168424606	-1.590134104e-07	-1.597450364e-06	1.0
11	0	-87.28699493	107.1060028	-28.7084465	6.817857638e-07	9.202636875e-08	1.0
12	0	-87.28699493	107.1060028	-20.25317764	2.674081326	11.92067146	1.0
[RightUpLeg]
10	-82.07800293	-67.51699829	-15.99599934	-41.02626801	-13.31176853	-5.585755348	1.0
11	-82.07800293	-67.51699829	-15.99599934	-50.29076767	-6.917241573	-0.6737254262	1.0
12	-82.07800293	-67.51699829	-15.99599934	-51.53678894	-1.438506007	4.748956203	1.0
[RightLeg]
10	0	-443.7049866	2.861999989	104.9300232	1.444899797	-2.491134644	1.0
11	0	-443.7049866	2.861999989	86.36487579	-0.5600718856	-2.014781475	1.0
12	0	-443.7049866	2.861999989	60.07321167	0.4719075263	0.3571201861	1.0
[RightFoot]
10	0	-444.2770081	-29.83799934	-7.508721828	-13.71243668	1.991587281	1.0
11	0	-444.2770081	-29.83799934	-12.28336143	-12.55431366	7.625534058	1.0
12	0	-444.2770081	-29.83799934	-11.16033649	-11.0121851	3.193462849	1.0
[RightToeBase]
10	0	-87.28699493	107.1060028	-5.037773132	-7.336358522e-06	7.216535778e-06	1.0
11	0	-87.28699493	107.1060028	-5.944815159	-9.134770153e-06	2.269792049e-06	1.0
12	0	-87.28699493	107.1060028	-2.141648054	2.65715903e-06	1.892697696e-06	1.0
[EndOfFile]
